<?xml version="1.0" encoding="utf-8"?>
<!-- Svg Vector Icons : http://www.onlinewebfonts.com/icon -->
<!DOCTYPE svg PUBLIC "-//W3C//DTD SVG 1.1//EN" "http://www.w3.org/Graphics/SVG/1.1/DTD/svg11.dtd">
<svg version="1.1" xmlns="http://www.w3.org/2000/svg" xmlns:xlink="http://www.w3.org/1999/xlink" x="0px" y="0px" viewBox="0 0 256 256" enable-background="new 0 0 256 256" xml:space="preserve">
<metadata> Svg Vector Icons : http://www.onlinewebfonts.com/icon </metadata>
<g><g><path fill="#000000" d="M128,32.9c25.4,0,49.3,9.9,67.2,27.8c18,18,27.8,41.8,27.8,67.2c0,25.4-9.9,49.3-27.8,67.2c-18,18-41.8,27.9-67.2,27.9c-25.4,0-49.3-9.9-67.2-27.8c-18-18-27.9-41.9-27.9-67.3c0-25.4,9.9-49.3,27.8-67.2C78.7,42.8,102.6,32.9,128,32.9 M128,10C62.8,10,10,62.8,10,128c0,65.2,52.8,118,118,118c65.2,0,118-52.8,118-118C246,62.8,193.2,10,128,10L128,10z M103.6,82c0,7.2-5.8,13.1-13,13.1c-7.2,0-13-5.9-13-13.1s5.8-13.1,13-13.1C97.8,68.9,103.6,74.8,103.6,82z M101.7,104.5h-22v71.1h22V104.5z M136.9,104.5h-21.1v71.1h21.1c0,0,0-26.4,0-37.3c0-10,4.6-16,13.4-16c8.1,0,12,5.7,12,16c0,10.2,0,37.3,0,37.3h21.9c0,0,0-26,0-45.1c0-19-10.8-28.3-25.9-28.3c-15.1,0-21.4,11.8-21.4,11.8V104.5L136.9,104.5z"/></g></g>
</svg>